#!OML:ASF E:\acrobat2\Project_11_07_03\Capture day 1\Session 1\Acrobat.ASF
:FULLY-SPECIFIED
:DEGREES
225
root 4.54625 14.5241 11.8744 25.629 13.5883 -1.17468
lowerback 30.3598 -0.590033 3.2486
upperback 11.6098 0.336527 0.758255
thorax -3.53216 0.279758 -1.14157
lowerneck -6.12019 -1.45738 -2.48192
upperneck -8.61789 -1.65825 3.21827
head -1.6135 -0.799763 1.41999
rclavicle 3.57812e-015 4.68138e-014
rhumerus 8.08863 0.70099 -82.3791
rradius 13.3954
rwrist 7.62767
rhand -14.4237 325.425
rfingers 7.12502
rthumb 11.7206 655.773
lclavicle 3.57812e-015 4.68138e-014
lhumerus -337.216 -26.0563 -289.237
lradius 16.236
lwrist 4.13053
lhand -2.28111 -25.2282
lfingers 7.12502
lthumb 23.4037 3.3687
rfemur -68.4655 -6.32774 30.488
rtibia 80.2871
rfoot -27.6652 6.59082
rtoes 50.8587
lfemur -74.2873 -4.69371 -17.2693
ltibia 81.174
lfoot -23.276 -21.1086
ltoes 28.2759
226
root 4.50586 14.2433 11.7791 23.1413 13.3305 -2.04101
lowerback 29.1888 -0.359956 3.43562
upperback 10.8316 0.627675 0.807606
thorax -3.86383 0.403277 -1.28405
lowerneck -7.09087 -1.35416 -3.38646
upperneck -7.17625 -1.38131 5.34938
head -0.984095 -0.639005 2.25237
rclavicle 1.23246e-014 2.64384e-014
rhumerus 8.37047 -2.01991 -82.4218
rradius 14.5957
rwrist 8.29531
rhand -13.5811 323.967
rfingers 7.12502
rthumb 12.533 654.363
lclavicle 1.23246e-014 2.64384e-014
lhumerus -337.552 -26.9928 -288.691
lradius 16.8045
lwrist 2.99186
lhand -3.57792 -24.7043
lfingers 7.12502
lthumb 22.1592 4.04572
rfemur -68.5596 -5.47266 31.2904
rtibia 85.2851
rfoot -28.731 3.70753
rtoes 41.4006
lfemur -73.4258 -4.25977 -16.7609
ltibia 84.7186
lfoot -26.161 -13.7369
ltoes 17.7736
227
root 4.45972 14.0371 11.6835 20.8679 13.279 -2.58283
lowerback 27.6653 -0.204063 3.80707
upperback 10.702 0.846302 0.783746
thorax -3.28348 0.52552 -1.57542
lowerneck -6.36277 -1.46668 -6.14348
upperneck -8.6343 -1.14017 9.39489
head -1.56994 -0.497374 4.20822
rclavicle 1.55052e-014 -3.97569e-015
rhumerus 8.79486 -4.31382 -82.3922
rradius 17.4408
rwrist 6.56563
rhand -14.0843 321.18
rfingers 7.12502
rthumb 12.0478 651.546
lclavicle 1.55052e-014 -3.97569e-015
lhumerus -336.334 -29.3535 -289.618
lradius 17.72
lwrist 3.94612
lhand -6.47494 -24.2676
lfingers 7.12502
lthumb 19.3757 4.78706
rfemur -68.1365 -5.18654 31.5851
rtibia 88.4078
rfoot -29.6439 3.88827
rtoes 38.1238
lfemur -72.4143 -3.88775 -16.6513
ltibia 86.9598
lfoot -27.629 -17.308
ltoes 24.2054
228
root 4.42263 13.9549 11.5871 18.1906 13.3939 -2.82093
lowerback 26.9159 -0.364963 4.05343
upperback 10.6707 0.667801 0.718354
thorax -2.9693 0.453658 -1.72877
lowerneck -6.21001 -1.18279 -7.9069
upperneck -8.49035 -0.499137 12.4914
head -1.3851 -0.178066 5.09129
rclavicle 5.96354e-015 -9.93923e-015
rhumerus 8.59333 -2.18856 -81.2083
rradius 19.7226
rwrist 3.18659
rhand -19.0332 323.018
rfingers 7.12502
rthumb 7.27307 653.163
lclavicle 5.96354e-015 -9.93923e-015
lhumerus -335.505 -31.9315 -291.096
lradius 18.8948
lwrist 7.72029
lhand -8.74707 -23.1548
lfingers 7.12502
lthumb 17.1899 6.10482
rfemur -65.6229 -6.04143 31.7495
rtibia 88.37
rfoot -30.709 3.10987
rtoes 32.3882
lfemur -70.3205 -3.63234 -16.7884
ltibia 87.0587
lfoot -27.1925 -17.3459
ltoes 28.2744
229
root 4.38487 13.9769 11.4828 16.0725 13.4093 -2.8102
lowerback 25.7898 -0.474806 4.05226
upperback 10.6276 0.467774 0.580381
thorax -2.49366 0.36912 -1.81343
lowerneck -5.49264 -1.18937 -8.24915
upperneck -8.84244 -0.462794 13.2229
head -1.59609 -0.190082 5.3842
rclavicle -1.36167e-014 -1.80894e-014
rhumerus 8.10557 2.08846 -79.1243
rradius 22.3942
rwrist -1.43308
rhand -22.2609 324.382
rfingers 7.12502
rthumb 4.15682 654.443
lclavicle -1.36167e-014 -1.80894e-014
lhumerus -336.286 -32.9804 -291.08
lradius 19.9425
lwrist 8.41373
lhand -9.80297 -23.7509
lfingers 7.12502
lthumb 16.1734 5.59438
rfemur -63.075 -6.95333 31.7542
rtibia 87.3735
rfoot -32.3214 2.39892
rtoes 28.2237
lfemur -68.0998 -3.55742 -16.9371
ltibia 86.5406
lfoot -27.0853 -17.2898
ltoes 28.3037
230
root 4.33876 14.1067 11.3746 14.5113 12.9523 -2.74695
lowerback 25.2511 -0.251311 3.90174
upperback 9.85189 0.690089 0.418511
thorax -3.0813 0.451308 -1.96407
lowerneck -5.00791 -1.43511 -8.77138
upperneck -8.09923 -0.832216 14.1221
head -1.40059 -0.37924 5.74581
rclavicle -2.3059e-014 -1.0635e-014
rhumerus 5.79694 14.8832 -75.7641
rradius 27.6116
rwrist -21.4586
rhand -44.4895 316.569
rfingers 7.12502
rthumb -17.2923 647.318
lclavicle -2.3059e-014 -1.0635e-014
lhumerus -338.504 -33.7055 -289.762
lradius 20.8027
lwrist 5.81448
lhand -8.11483 -24.5235
lfingers 7.12502
lthumb 17.7984 4.68201
rfemur -60.4468 -7.19261 31.62
rtibia 85.2522
rfoot -33.9909 1.71606
rtoes 24.8795
lfemur -65.8384 -3.09402 -16.9941
ltibia 85.0345
lfoot -26.9169 -16.7546
ltoes 26.0201
231
root 4.2873 14.3314 11.2756 13.475 12.3049 -2.6343
lowerback 24.019 0.268842 3.69922
upperback 9.84286 1.23207 0.127866
thorax -2.45898 0.729103 -2.28384
lowerneck -5.42371 -1.9615 -8.82088
upperneck -8.96028 -1.38719 14.9933
head -1.49696 -0.66955 6.03367
rclavicle 2.95195e-014 -1.08338e-014
rhumerus 7.19324 8.26667 -75.9604
rradius 24.313
rwrist -6.39899
rhand -17.7788 320.497
rfingers 7.12502
rthumb 8.48385 650.687
lclavicle 2.95195e-014 -1.08338e-014
lhumerus -337.014 -36.5313 -291.527
lradius 21.4465
lwrist 5.32976
lhand -6.07137 -24.2108
lfingers 7.12502
lthumb 19.7637 4.80441
rfemur -57.6961 -6.92179 31.3077
rtibia 81.9449
rfoot -35.2602 0.278443
rtoes 18.4916
lfemur -63.5035 -2.51567 -16.9216
ltibia 82.4307
lfoot -26.0832 -16.0184
ltoes 23.4179
232
root 4.23796 14.6588 11.1851 12.3352 11.943 -2.49053
lowerback 23.2919 0.296332 3.15951
upperback 9.2545 1.12778 0.0880742
thorax -2.76822 0.650068 -1.9877
lowerneck -1.9576 -1.76464 -9.58655
upperneck -12.271 -0.941828 15.6053
head -3.078 -0.63412 6.45838
rclavicle -1.89342e-014 -3.42904e-015
rhumerus 8.19106 5.16549 -77.2833
rradius 21.5161
rwrist 0.814049
rhand -33.7494 333.003
rfingers 7.12502
rthumb -6.93766 663.137
lclavicle -1.89342e-014 -3.42904e-015
lhumerus -338.327 -37.5124 -291.29
lradius 22.428
lwrist 6.43792
lhand -1.96574 -18.9288
lfingers 7.12502
lthumb 23.7063 9.62925
rfemur -54.1697 -6.88123 30.777
rtibia 77.3234
rfoot -35.3362 -1.30552
rtoes 11.6312
lfemur -60.3463 -2.31978 -16.7926
ltibia 78.842
lfoot -24.8894 -15.354
ltoes 22.2648
233
root 4.19347 15.0852 11.0952 10.8786 11.9382 -2.66411
lowerback 23.3529 0.278735 3.39322
upperback 8.70388 1.15956 0.00975437
thorax -3.38938 0.651185 -2.22181
lowerneck 0.00764618 -1.99606 -8.24066
upperneck -13.7897 -1.36577 14.0757
head -3.85242 -0.944162 5.7989
rclavicle 1.28465e-014 1.0635e-014
rhumerus 7.01428 5.02781 -77.5068
rradius 21.6452
rwrist 3.60657
rhand -17.5136 327.287
rfingers 7.12502
rthumb 8.73974 657.488
lclavicle 1.28465e-014 1.0635e-014
lhumerus -340.135 -37.3561 -289.927
lradius 24.089
lwrist 9.11642
lhand 5.04532 -13.027
lfingers 7.12502
lthumb 30.4132 14.4847
rfemur -49.9055 -7.1893 30.4719
rtibia 71.7302
rfoot -34.1446 -2.30705
rtoes 3.75605
lfemur -56.6436 -2.58151 -16.3309
ltibia 75.1403
lfoot -23.8694 -14.8265
ltoes 21.6586
234
root 4.15 15.5739 11.0179 9.99938 11.928 -2.84796
lowerback 22.8043 0.237396 3.52819
upperback 8.15273 1.11688 -0.0520755
thorax -3.71484 0.617137 -2.35153
lowerneck 2.15304 -2.20323 -6.75942
upperneck -15.6275 -1.76401 12.1789
head -4.78698 -1.21679 5.03124
rclavicle 3.60918e-015 -1.92821e-014
rhumerus 5.78572 5.407 -77.8542
rradius 21.8427
rwrist 4.00228
rhand -18.3731 326.501
rfingers 7.12502
rthumb 7.91025 656.669
lclavicle 3.60918e-015 -1.92821e-014
lhumerus -342.26 -40.5528 -290.198
lradius 24.0488
lwrist 6.27061
lhand -1.51611 -15.9476
lfingers 7.12502
lthumb 24.1374 12.5539
rfemur -46.2573 -7.41071 30.2393
rtibia 66.319
rfoot -31.4212 -2.46179
rtoes 2.75217
lfemur -51.9898 -2.22502 -15.8231
ltibia 67.5209
lfoot -20.54 -13.4757
ltoes 21.6963
